<?xml version="1.0" encoding="utf-8"?>
<svg id="master-artboard" viewBox="0 0 1400 980" version="1.1" xmlns="http://www.w3.org/2000/svg" x="0px" y="0px" style="enable-background:new 0 0 1400 980;" width="1400px" height="980px"><rect id="ee-background" x="0" y="0" width="1400" height="980" style="fill: white; fill-opacity: 0; pointer-events: none;"/><g transform="matrix(1.3064280655104923, 0, 0, 1.3064280655104923, 209.99989981634644, 0.000002660154450495611)"><g>
	<g>
		<g>
			<g>
				<path style="fill: rgb(225, 165, 65);" d="M453.137,234.206c-29.418,0-54.309,23.76-54.309,54.308c0,30.549,23.76,54.309,54.309,54.309&#10;&#9;&#9;&#9;&#9;&#9;c29.418,0,54.309-23.76,54.309-54.309C507.446,257.966,482.555,234.206,453.137,234.206z M453.137,332.64&#10;&#9;&#9;&#9;&#9;&#9;c-24.891,0-44.125-19.234-44.125-44.126c0-24.891,19.234-44.125,44.125-44.125c23.76,0,44.125,19.234,44.125,44.125&#10;&#9;&#9;&#9;&#9;&#9;C497.262,313.406,478.028,332.64,453.137,332.64z"/>
				<path style="fill: rgb(225, 165, 65);" d="M295.869,234.206c-29.417,0-54.309,23.76-54.309,54.308c0,30.549,23.76,54.309,54.309,54.309&#10;&#9;&#9;&#9;&#9;&#9;c29.417,0,54.309-23.76,54.309-54.309C350.177,257.966,325.286,234.206,295.869,234.206z M295.869,332.64&#10;&#9;&#9;&#9;&#9;&#9;c-24.892,0-44.125-19.234-44.125-44.126c0-24.891,19.234-44.125,44.125-44.125c23.76,0,44.125,19.234,44.125,44.125&#10;&#9;&#9;&#9;&#9;&#9;C339.994,313.406,320.76,332.64,295.869,332.64z"/>
			</g>
			<path style="fill: rgb(225, 165, 65);" d="M392.039,149.349c14.709,0,26.023-11.314,26.023-26.023s-11.314-26.023-26.023-26.023&#10;&#9;&#9;&#9;&#9;c-14.709,0-26.022,11.314-26.022,26.023S377.33,149.349,392.039,149.349z"/>
			<path d="M 369.4110107421875 267.0169982910156 L 369.4110107421875 311.14300537109375 L 394.3030090332031 311.14300537109375 L 394.3030090332031 250.04600524902344 L 351.3080139160156 217.23399353027344 L 373.93701171875 185.5540008544922 L 437.2969970703125 218.36599731445312 L 446.3479919433594 200.26300048828125 L 385.25201416015625 168.58299255371094 L 392.03900146484375 159.531005859375 L 364.885009765625 140.2969970703125 L 308.3139953613281 220.62899780273438 L 330.9429931640625 237.60000610351562 Z" style="fill: rgb(225, 165, 65);"/>
			<path style="fill: rgb(225, 165, 65);" d="M397.698,313.406h-23.761c-4.525,0-7.92,3.394-7.92,7.92s3.395,6.789,7.92,6.789h23.761&#10;&#9;&#9;&#9;&#9;c4.525,0,6.787-3.394,6.787-6.789C404.484,316.8,402.223,313.406,397.698,313.406z"/>
			<path style="fill: rgb(225, 165, 65);" d="M375.069,0C244.954,0,138.6,106.354,138.6,236.469s236.469,513.668,236.469,513.668&#10;&#9;&#9;&#9;&#9;s236.469-383.554,236.469-514.799C611.536,105.223,505.182,0,375.069,0z M375.069,420.892&#10;&#9;&#9;&#9;&#9;c-106.354,0-192.343-85.989-192.343-192.343S268.715,36.206,375.069,36.206s192.342,85.989,192.342,192.343&#10;&#9;&#9;&#9;&#9;C566.28,334.903,480.291,420.892,375.069,420.892z"/>
		</g>
	</g>
</g><g>
</g><g>
</g><g>
</g><g>
</g><g>
</g><g>
</g><g>
</g><g>
</g><g>
</g><g>
</g><g>
</g><g>
</g><g>
</g><g>
</g><g>
</g></g><path d="M 712.5665893554688 730.740966796875 L 885.9220581054688 722.352783203125" style="fill: rgb(225, 165, 65); fill-opacity: 1; stroke: rgb(0, 0, 0); stroke-opacity: 1; stroke-width: 0; paint-order: fill;"/></svg>